<svg width="24" height="26" viewBox="0 0 24 26" fill="none" xmlns="http://www.w3.org/2000/svg">
<path d="M22 2.25H18.75V1C18.75 0.801088 18.671 0.610322 18.5303 0.46967C18.3897 0.329018 18.1989 0.25 18 0.25C17.8011 0.25 17.6103 0.329018 17.4697 0.46967C17.329 0.610322 17.25 0.801088 17.25 1V2.25H6.75V1C6.75 0.801088 6.67098 0.610322 6.53033 0.46967C6.38968 0.329018 6.19891 0.25 6 0.25C5.80109 0.25 5.61032 0.329018 5.46967 0.46967C5.32902 0.610322 5.25 0.801088 5.25 1V2.25H2C1.53587 2.25 1.09075 2.43437 0.762563 2.76256C0.434375 3.09075 0.25 3.53587 0.25 4V24C0.25 24.4641 0.434375 24.9092 0.762563 25.2374C1.09075 25.5656 1.53587 25.75 2 25.75H22C22.4641 25.75 22.9092 25.5656 23.2374 25.2374C23.5656 24.9092 23.75 24.4641 23.75 24V4C23.75 3.53587 23.5656 3.09075 23.2374 2.76256C22.9092 2.43437 22.4641 2.25 22 2.25ZM2 3.75H5.25V5C5.25 5.19891 5.32902 5.38968 5.46967 5.53033C5.61032 5.67098 5.80109 5.75 6 5.75C6.19891 5.75 6.38968 5.67098 6.53033 5.53033C6.67098 5.38968 6.75 5.19891 6.75 5V3.75H17.25V5C17.25 5.19891 17.329 5.38968 17.4697 5.53033C17.6103 5.67098 17.8011 5.75 18 5.75C18.1989 5.75 18.3897 5.67098 18.5303 5.53033C18.671 5.38968 18.75 5.19891 18.75 5V3.75H22C22.0663 3.75 22.1299 3.77634 22.1768 3.82322C22.2237 3.87011 22.25 3.9337 22.25 4V8.25H1.75V4C1.75 3.9337 1.77634 3.87011 1.82322 3.82322C1.87011 3.77634 1.9337 3.75 2 3.75ZM22 24.25H2C1.9337 24.25 1.87011 24.2237 1.82322 24.1768C1.77634 24.1299 1.75 24.0663 1.75 24V9.75H22.25V24C22.25 24.0663 22.2237 24.1299 22.1768 24.1768C22.1299 24.2237 22.0663 24.25 22 24.25ZM9.75 13V21C9.75 21.1989 9.67098 21.3897 9.53033 21.5303C9.38968 21.671 9.19891 21.75 9 21.75C8.80109 21.75 8.61032 21.671 8.46967 21.5303C8.32902 21.3897 8.25 21.1989 8.25 21V14.2138L7.335 14.6712C7.24685 14.7152 7.1509 14.7414 7.05262 14.7484C6.95435 14.7553 6.85567 14.7428 6.76224 14.7115C6.6688 14.6803 6.58242 14.631 6.50805 14.5664C6.43367 14.5018 6.37274 14.4231 6.32875 14.335C6.28476 14.2468 6.25856 14.1509 6.25165 14.0526C6.24474 13.9543 6.25725 13.8557 6.28847 13.7622C6.3197 13.6688 6.36902 13.5824 6.43362 13.508C6.49823 13.4337 6.57685 13.3727 6.665 13.3287L8.665 12.3287C8.77936 12.2717 8.90642 12.2447 9.03411 12.2506C9.1618 12.2564 9.28589 12.2947 9.39459 12.362C9.50329 12.4292 9.593 12.5231 9.6552 12.6348C9.71741 12.7465 9.75004 12.8722 9.75 13ZM17.1963 16.6562L14.5 20.25H17C17.1989 20.25 17.3897 20.329 17.5303 20.4697C17.671 20.6103 17.75 20.8011 17.75 21C17.75 21.1989 17.671 21.3897 17.5303 21.5303C17.3897 21.671 17.1989 21.75 17 21.75H13C12.8607 21.75 12.7242 21.7112 12.6057 21.638C12.4872 21.5648 12.3915 21.46 12.3292 21.3354C12.2669 21.2108 12.2405 21.0714 12.253 20.9326C12.2655 20.7939 12.3164 20.6614 12.4 20.55L16 15.75C16.1037 15.6138 16.1782 15.4577 16.2191 15.2915C16.26 15.1253 16.2663 14.9525 16.2377 14.7837C16.209 14.6149 16.146 14.4539 16.0525 14.3105C15.9591 14.1671 15.8372 14.0444 15.6943 13.95C15.5515 13.8557 15.3908 13.7917 15.2223 13.7619C15.0537 13.7322 14.8808 13.7375 14.7143 13.7773C14.5479 13.8172 14.3914 13.8908 14.2545 13.9936C14.1177 14.0964 14.0034 14.2262 13.9188 14.375C13.874 14.4683 13.8105 14.5512 13.7321 14.6188C13.6538 14.6863 13.5623 14.7369 13.4635 14.7674C13.3647 14.7978 13.2606 14.8075 13.1578 14.7959C13.0551 14.7842 12.9558 14.7514 12.8664 14.6995C12.7769 14.6476 12.6991 14.5778 12.6379 14.4944C12.5767 14.4111 12.5334 14.3159 12.5107 14.215C12.4881 14.1141 12.4865 14.0096 12.5062 13.9081C12.5259 13.8065 12.5663 13.7102 12.625 13.625C12.8135 13.3014 13.0661 13.0197 13.3673 12.7972C13.6685 12.5747 14.012 12.4161 14.3767 12.331C14.7414 12.246 15.1196 12.2363 15.4881 12.3026C15.8567 12.3689 16.2078 12.5098 16.52 12.7166C16.8322 12.9234 17.0989 13.1918 17.3037 13.5053C17.5084 13.8189 17.647 14.1709 17.7109 14.5399C17.7748 14.9089 17.7627 15.287 17.6753 15.6512C17.5878 16.0153 17.427 16.3577 17.2025 16.6575L17.1963 16.6562Z" fill="#FAF6F6"/>
</svg>
