<svg width="31" height="31" viewBox="0 0 31 31" fill="none" xmlns="http://www.w3.org/2000/svg">
<g clip-path="url(#clip0_234_238)">
<path d="M17.3933 1.65147C17.0187 1.24436 16.5108 1.01566 15.9811 1.01566C15.4515 1.01566 14.9435 1.24436 14.5689 1.65147L1.29179 16.0839C1.19893 16.1848 1.12528 16.3047 1.07502 16.4366C1.02477 16.5685 0.998901 16.7099 0.998901 16.8526C0.998901 16.9954 1.02477 17.1368 1.07502 17.2687C1.12528 17.4006 1.19893 17.5204 1.29179 17.6214C1.47933 17.8253 1.73368 17.9398 1.99889 17.9398C2.13021 17.9398 2.26025 17.9117 2.38157 17.857C2.5029 17.8024 2.61314 17.7223 2.70599 17.6214L3.99635 16.2163V27.7106C3.99635 28.5745 4.31202 29.403 4.87392 30.0139C5.43581 30.6248 6.19791 30.968 6.99255 30.968H24.9697C25.7643 30.968 26.5264 30.6248 27.0883 30.0139C27.6502 29.403 27.9659 28.5745 27.9659 27.7106V16.2163L29.2562 17.6214C29.4438 17.8253 29.6981 17.9398 29.9634 17.9398C30.2286 17.9398 30.4829 17.8253 30.6705 17.6214C30.858 17.4175 30.9633 17.141 30.9633 16.8526C30.9633 16.5643 30.858 16.2878 30.6705 16.0839L25.9684 10.9741V3.82306C25.9684 3.53509 25.8632 3.25891 25.6759 3.05529C25.4886 2.85166 25.2346 2.73727 24.9697 2.73727H22.9722C22.7074 2.73727 22.4533 2.85166 22.266 3.05529C22.0787 3.25891 21.9735 3.53509 21.9735 3.82306V6.63093L17.3933 1.65147ZM25.9684 14.0448V27.7106C25.9684 27.9986 25.8632 28.2747 25.6759 28.4784C25.4886 28.682 25.2346 28.7964 24.9697 28.7964H6.99255C6.72767 28.7964 6.47364 28.682 6.28634 28.4784C6.09904 28.2747 5.99382 27.9986 5.99382 27.7106V14.0448L15.9811 3.18679L25.9684 14.0448Z" fill="#FAF6F6"/>
</g>
<defs>
<clipPath id="clip0_234_238">
<rect width="30" height="30" fill="white" transform="translate(0.966553 0.523071)"/>
</clipPath>
</defs>
</svg>
