<svg width="32" height="32" viewBox="0 0 32 32" fill="none" xmlns="http://www.w3.org/2000/svg">
<path d="M30.1667 14.5833V16C30.1523 18.8593 29.2731 21.6473 27.6446 23.9976C26.0161 26.3478 23.7145 28.1503 21.0424 29.168C18.3703 30.1857 15.4528 30.371 12.6735 29.6995C9.8941 29.0281 7.38296 27.5313 5.47017 25.406C3.55739 23.2807 2.33249 20.6263 1.95651 17.7918C1.58054 14.9573 2.07108 12.0754 3.36365 9.52489C4.65622 6.9744 6.69032 4.87474 9.19853 3.50193C11.7067 2.12913 14.5717 1.54744 17.4167 1.83333" stroke="#FAF6F6" stroke-width="2" stroke-linecap="round" stroke-linejoin="round"/>
<path d="M10.3333 18.8333C10.3333 18.8333 12.4583 21.6667 16 21.6667C19.5417 21.6667 21.6667 18.8333 21.6667 18.8333M11.75 11.75H11.7642M20.25 11.75H20.2642M21.6667 6.08333H30.1667M25.9167 1.83333V10.3333" stroke="#FAF6F6" stroke-width="2" stroke-linecap="round" stroke-linejoin="round"/>
</svg>
