<svg width="21" height="21" viewBox="0 0 21 21" fill="none" xmlns="http://www.w3.org/2000/svg">
<path fill-rule="evenodd" clip-rule="evenodd" d="M16.2431 0.720006C16.6363 0.317283 17.197 0.0656154 17.8032 0.0198313C18.4094 -0.0259527 19.0119 0.137858 19.4794 0.475573C19.947 0.813289 20.2416 1.29754 20.2993 1.82283C20.3569 2.34812 20.1728 2.87188 19.7872 3.28001L13.3295 10L19.7872 16.72C19.9839 16.9215 20.1326 17.1547 20.2248 17.4063C20.3171 17.6579 20.351 17.9228 20.3246 18.1858C20.2981 18.4488 20.2119 18.7047 20.0709 18.9386C19.9299 19.1726 19.7369 19.38 19.503 19.549C19.2691 19.718 18.999 19.8451 18.7081 19.9231C18.4173 20.001 18.1115 20.0283 17.8085 20.0033C17.5054 19.9783 17.2111 19.9015 16.9424 19.7774C16.6738 19.6532 16.4361 19.4842 16.2431 19.28L10.3274 13.1247L4.41176 19.2813C4.02018 19.6889 3.45796 19.9449 2.84876 19.9929C2.23956 20.041 1.63329 19.8772 1.16332 19.5377C0.693351 19.1981 0.398183 18.7106 0.342749 18.1823C0.287314 17.654 0.476154 17.1282 0.867726 16.7207L7.32539 10.0007L0.867726 3.28067C0.482037 2.87255 0.29796 2.34879 0.3556 1.8235C0.41324 1.29821 0.707925 0.813955 1.17545 0.476239C1.64298 0.138524 2.24547 -0.0252858 2.85165 0.0204983C3.45784 0.0662823 4.01859 0.31795 4.41176 0.720673L10.3274 6.87534L16.2431 0.718672V0.720006ZM18.5072 1.48801C18.3505 1.3749 18.1485 1.32035 17.9456 1.33635C17.7426 1.35235 17.5552 1.43759 17.4247 1.57334L10.9179 8.34401C10.8457 8.41903 10.7554 8.47939 10.6534 8.52081C10.5514 8.56224 10.4401 8.5837 10.3274 8.5837C10.2148 8.5837 10.1035 8.56224 10.0015 8.52081C9.89946 8.47939 9.80918 8.41903 9.73703 8.34401L3.23016 1.57334C3.16644 1.5037 3.08731 1.44582 2.99742 1.40309C2.90752 1.36037 2.80868 1.33367 2.70671 1.32456C2.60474 1.31545 2.5017 1.32411 2.40365 1.35005C2.3056 1.37598 2.21452 1.41866 2.13577 1.47557C2.05702 1.53248 1.9922 1.60247 1.9451 1.68142C1.898 1.76038 1.86959 1.84671 1.86154 1.93533C1.85348 2.02395 1.86595 2.11307 1.8982 2.19745C1.93045 2.28183 1.98183 2.35977 2.04933 2.42667L8.91675 9.57334C9.03181 9.69313 9.09482 9.8441 9.09482 10C9.09482 10.1559 9.03181 10.3069 8.91675 10.4267L2.04933 17.5733C1.98183 17.6402 1.93045 17.7182 1.8982 17.8026C1.86595 17.8869 1.85348 17.9761 1.86154 18.0647C1.86959 18.1533 1.898 18.2396 1.9451 18.3186C1.9922 18.3975 2.05702 18.4675 2.13577 18.5244C2.21452 18.5814 2.3056 18.624 2.40365 18.65C2.5017 18.6759 2.60474 18.6846 2.70671 18.6755C2.80868 18.6663 2.90752 18.6396 2.99742 18.5969C3.08731 18.5542 3.16644 18.4963 3.23016 18.4267L9.73703 11.656C9.80918 11.581 9.89946 11.5206 10.0015 11.4792C10.1035 11.4378 10.2148 11.4163 10.3274 11.4163C10.4401 11.4163 10.5514 11.4378 10.6534 11.4792C10.7554 11.5206 10.8457 11.581 10.9179 11.656L17.4247 18.4267C17.5569 18.5577 17.7428 18.6386 17.9429 18.6523C18.143 18.666 18.3413 18.6113 18.4955 18.4999C18.6497 18.3884 18.7475 18.2292 18.7681 18.056C18.7886 17.8829 18.7303 17.7097 18.6056 17.5733L11.7381 10.4267C11.6231 10.3069 11.5601 10.1559 11.5601 10C11.5601 9.8441 11.6231 9.69313 11.7381 9.57334L18.6056 2.42667C18.736 2.29086 18.7989 2.11569 18.7804 1.93967C18.762 1.76365 18.6637 1.60119 18.5072 1.48801Z" fill="#444444"/>
</svg>
